<?xml version="1.0" standalone="no"?>
<!DOCTYPE svg PUBLIC "-//W3C//DTD SVG 20010904//EN"
 "http://www.w3.org/TR/2001/REC-SVG-20010904/DTD/svg10.dtd">
<svg version="1.0" xmlns="http://www.w3.org/2000/svg"
 width="184.000000pt" height="154.000000pt" viewBox="0 0 184.000000 154.000000"
 preserveAspectRatio="xMidYMid meet">
<metadata>
Created by potrace 1.10, written by Peter Selinger 2001-2011
</metadata>
<g transform="translate(0.000000,154.000000) scale(0.050000,-0.050000)"
fill="#000000" stroke="none">
<path d="M1341 2484 c-31 -26 -48 -82 -72 -234 -72 -457 -223 -890 -371 -1057
-156 -178 -19 -474 156 -338 72 56 295 599 356 865 18 83 38 164 44 180 5 17
40 -64 78 -180 157 -477 388 -608 487 -276 96 322 129 347 152 117 21 -219
125 -625 202 -793 30 -64 155 -148 221 -148 78 0 97 87 41 184 -141 245 -228
647 -253 1181 -17 369 -26 392 -156 448 -139 58 -189 7 -214 -219 -13 -116
-138 -481 -181 -530 -18 -19 -43 46 -108 287 -102 377 -157 477 -288 527 -42
16 -61 13 -94 -14z"/>
</g>
</svg>
