<?xml version="1.0" standalone="no"?>
<!DOCTYPE svg PUBLIC "-//W3C//DTD SVG 20010904//EN"
 "http://www.w3.org/TR/2001/REC-SVG-20010904/DTD/svg10.dtd">
<svg version="1.0" xmlns="http://www.w3.org/2000/svg"
 width="390.000000pt" height="438.000000pt" viewBox="0 0 390.000000 438.000000"
 preserveAspectRatio="xMidYMid meet">
<metadata>
Created by potrace 1.15, written by Peter Selinger 2001-2017
</metadata>
<g transform="translate(0.000000,438.000000) scale(0.100000,-0.100000)"
fill="#000000" stroke="none">
<path d="M1795 4193 c-60 -8 -192 -15 -292 -16 -164 -2 -182 -4 -178 -18 8
-23 -9 -27 -90 -19 -98 9 -115 4 -115 -31 0 -37 -47 -68 -105 -70 -81 -3 -97
-11 -109 -53 -10 -34 -17 -41 -53 -53 -24 -8 -57 -31 -78 -55 -35 -38 -37 -43
-33 -103 2 -49 -1 -67 -14 -82 -39 -42 -67 -173 -38 -173 6 0 10 4 10 9 0 5 7
11 15 14 12 5 13 -4 8 -59 -5 -54 -1 -77 22 -149 l29 -85 -18 -78 c-10 -42
-34 -126 -52 -185 -46 -146 -44 -165 16 -283 57 -112 59 -126 29 -257 -27
-119 -22 -186 31 -392 60 -235 86 -317 141 -442 26 -62 55 -140 64 -174 46
-175 128 -237 337 -254 43 -4 81 -11 84 -17 4 -6 12 -52 18 -102 l12 -91 -54
-67 c-52 -64 -59 -68 -161 -108 -58 -24 -252 -116 -431 -205 -179 -89 -356
-172 -395 -185 -93 -31 -164 -101 -223 -219 -23 -46 -42 -89 -42 -97 0 -19
1109 -21 1114 -2 57 204 208 597 234 606 17 5 16 -98 -3 -233 -9 -59 -14 -109
-13 -111 2 -1 27 17 57 42 29 24 59 44 66 44 7 0 30 -19 49 -43 43 -49 43 -61
-8 153 -19 80 -36 164 -39 188 -5 40 -3 43 16 40 13 -2 46 -35 82 -81 33 -42
76 -88 95 -100 38 -25 90 -49 90 -42 0 2 -21 28 -46 57 -56 63 -81 116 -92
197 -8 54 -14 66 -60 115 -29 30 -52 62 -52 71 0 58 108 170 360 377 187 152
277 239 310 298 l24 45 -54 -53 c-66 -65 -135 -106 -382 -227 -245 -121 -372
-163 -510 -171 -184 -11 -262 19 -313 120 -38 77 -42 179 -8 225 l22 29 -25
23 c-13 12 -24 26 -24 29 0 4 23 10 50 14 71 9 111 27 45 20 -63 -7 -129 10
-150 39 -15 20 -17 21 -26 5 -24 -42 -29 -28 -106 272 -69 267 -70 274 -48
385 l18 95 36 0 36 0 -33 20 c-34 21 -43 50 -15 50 15 0 15 1 0 18 -18 20 -23
67 -8 77 5 3 13 -5 17 -17 9 -29 22 -38 57 -38 21 0 31 7 44 35 16 33 33 46
33 26 0 -36 -56 -216 -89 -287 -53 -113 -54 -145 -1 -199 l39 -40 -9 -65 c-5
-36 -10 -76 -10 -88 l0 -24 33 29 c19 15 45 44 58 63 13 19 31 40 39 47 20 16
7 27 -58 48 -67 22 -122 72 -122 112 0 16 18 67 41 113 39 82 109 311 109 359
0 16 -19 43 -57 82 -62 61 -119 86 -173 74 -15 -3 -31 -2 -34 3 -3 4 6 44 20
88 14 43 36 131 50 194 41 195 76 280 126 306 35 18 123 18 140 1 10 -12 25
-7 84 23 97 50 172 64 339 64 116 1 156 -3 233 -23 73 -19 111 -23 177 -19
100 5 98 9 59 -109 -30 -94 -40 -193 -25 -250 9 -34 20 -47 64 -74 213 -133
233 -164 250 -385 l12 -148 65 -23 c36 -12 72 -23 80 -23 9 0 27 25 42 58 44
95 132 182 184 182 15 0 15 -2 -2 -21 -15 -17 -4 -14 50 15 155 81 245 22 254
-166 8 -155 -53 -292 -188 -429 -94 -94 -145 -118 -208 -96 l-41 14 14 -27 c8
-16 31 -38 51 -51 37 -23 65 -22 150 6 20 6 21 3 27 -147 6 -148 30 -326 63
-450 31 -122 4 -186 -295 -703 -99 -171 -290 -528 -321 -601 l-19 -44 822 3
822 2 0 400 0 399 -192 97 c-106 53 -220 106 -254 118 -34 11 -67 27 -73 35
-6 8 -42 40 -81 71 -38 31 -127 110 -197 176 -70 66 -143 126 -162 134 -37 16
-39 20 -56 140 -12 87 -13 188 -1 201 4 5 21 43 36 84 15 41 63 149 106 240
89 189 137 341 167 535 18 109 34 341 32 460 0 53 -21 139 -46 188 -28 57 -28
57 -9 57 8 0 15 6 15 13 0 16 -53 102 -69 111 -7 5 -7 12 1 25 17 28 1 67 -38
92 -30 18 -35 26 -31 48 8 38 -5 53 -49 60 -34 6 -39 10 -50 46 -20 70 -61
140 -104 179 -44 39 -59 42 -40 7 22 -43 -3 -40 -53 5 -70 63 -152 100 -299
134 -143 34 -370 70 -425 69 -21 -1 -87 -8 -148 -16z m195 -98 c30 -7 105 -21
166 -29 178 -26 275 -64 358 -140 47 -44 42 -55 -11 -28 -37 19 -153 54 -153
46 0 -2 15 -11 33 -20 50 -26 127 -87 127 -101 0 -11 -7 -10 -32 3 -58 30
-142 54 -255 74 -61 11 -120 23 -130 26 -54 17 44 -29 109 -51 43 -15 80 -30
83 -35 7 -12 -157 -24 -217 -16 -66 9 -149 38 -188 66 -38 27 -38 15 0 -32 32
-38 138 -98 175 -98 12 0 30 -6 40 -14 18 -13 13 -15 -47 -21 -36 -4 -90 -4
-120 0 -66 9 -192 50 -237 78 l-34 21 19 -34 c28 -49 100 -98 182 -122 94 -29
75 -42 -63 -41 -145 1 -271 43 -355 120 -22 19 -40 32 -40 29 0 -13 50 -105
60 -111 21 -13 -2 -26 -33 -19 -54 11 -103 41 -142 86 -31 35 -36 39 -30 18 4
-14 18 -45 31 -69 28 -50 25 -55 -40 -65 -22 -4 -63 -19 -91 -35 l-50 -27 -65
35 c-75 42 -99 80 -107 172 -6 66 7 82 41 50 31 -29 39 -26 21 9 -8 16 -15 48
-15 70 0 37 2 41 20 35 12 -4 62 -1 112 6 90 12 91 12 69 30 -12 10 -20 23
-16 29 10 17 111 11 166 -9 61 -24 51 -5 -19 36 -35 21 -41 28 -28 33 19 6
146 -3 191 -15 l30 -8 -27 30 c-16 16 -28 32 -28 36 0 17 170 6 268 -18 124
-30 126 -30 85 -4 -59 37 -40 50 62 42 39 -3 95 -11 125 -18z m255 -715 c-8
-21 -19 -48 -25 -60 -11 -20 -10 -21 27 -15 74 13 158 37 185 53 15 9 30 14
33 11 3 -3 0 -31 -6 -63 -7 -31 -9 -59 -6 -62 11 -11 86 37 121 77 20 24 39
40 42 36 6 -6 -8 -95 -22 -144 -8 -30 7 -29 75 2 30 14 55 24 57 23 1 -2 -4
-32 -11 -68 -8 -36 -14 -68 -15 -72 0 -5 34 -8 75 -8 l75 0 -6 -42 c-4 -24 -7
-47 -8 -53 0 -5 22 -12 49 -15 46 -5 50 -7 53 -32 3 -27 6 -28 58 -28 37 0 56
-4 60 -14 7 -18 -41 -330 -66 -428 -25 -99 -56 -179 -123 -326 -30 -64 -59
-129 -65 -144 -6 -16 -16 -28 -22 -28 -12 0 -12 -5 0 105 10 81 14 94 50 140
77 100 130 251 130 372 0 111 -53 209 -126 233 -40 14 -177 -10 -241 -41 -54
-26 -135 -114 -159 -173 -11 -25 -25 -46 -32 -46 -8 0 -38 7 -68 16 l-54 15 0
60 c0 106 -21 250 -42 297 -23 49 -82 100 -190 164 -38 22 -74 50 -79 61 -15
27 -14 143 1 195 7 23 14 42 16 42 1 0 30 -7 63 -16 50 -12 72 -13 114 -4 29
6 59 15 67 20 24 15 30 1 15 -40z m-1397 -576 c36 -10 25 -28 -30 -49 -29 -11
-56 -21 -60 -23 -12 -5 -31 45 -25 62 7 17 69 22 115 10z"/>
<path d="M1379 3004 c-114 -20 -171 -44 -189 -79 -8 -17 -16 -32 -17 -34 -2
-2 -9 2 -18 9 -26 22 -17 -7 13 -40 l27 -31 150 57 c137 51 159 57 251 61 82
4 116 1 184 -16 45 -12 84 -20 87 -18 8 9 -86 57 -160 82 -88 29 -201 32 -328
9z"/>
<path d="M1415 2843 c-24 -6 -53 -31 -67 -57 -9 -16 -8 -18 8 -12 11 4 24 8
29 9 14 3 6 -35 -12 -55 -9 -10 -11 -18 -6 -18 6 0 21 16 34 35 26 37 55 48
44 17 -3 -11 3 -30 16 -45 33 -43 86 -32 109 23 14 33 32 37 70 15 14 -8 41
-14 60 -14 67 0 -104 61 -188 67 -81 5 -99 17 -50 31 l33 9 -30 0 c-16 0 -39
-3 -50 -5z"/>
<path d="M2752 2719 c-55 -27 -89 -73 -113 -150 -21 -67 -25 -109 -7 -71 6 12
15 22 20 22 18 0 67 -30 77 -47 10 -17 10 -17 11 0 0 19 -40 63 -75 83 -19 10
-19 12 -2 37 9 14 34 44 55 66 33 35 45 41 79 41 26 0 50 -8 67 -21 23 -18 25
-19 19 -2 -10 30 -45 63 -67 63 -12 0 -40 -10 -64 -21z"/>
<path d="M2572 2423 c-1 -16 -10 -39 -20 -53 -28 -38 -32 -56 -18 -76 13 -17
17 -16 69 11 31 16 55 31 53 32 -1 1 -19 -3 -39 -9 -46 -14 -53 -8 -32 32 10
20 14 42 10 61 -8 37 -20 38 -23 2z"/>
<path d="M2840 2401 c0 -6 -19 -32 -42 -58 -24 -25 -34 -41 -23 -35 35 18 84
87 71 100 -3 3 -6 0 -6 -7z"/>
<path d="M1028 2229 c-32 -18 -19 -27 45 -32 34 -3 71 -7 82 -9 30 -5 30 26 0
40 -32 15 -104 15 -127 1z"/>
<path d="M1248 2189 c-15 -16 -23 -29 -17 -29 12 0 49 37 49 50 0 13 0 13 -32
-21z"/>
<path d="M1073 2018 c1 -31 5 -54 9 -52 10 7 9 63 -2 89 -5 14 -8 2 -7 -37z"/>
<path d="M1086 1929 c-11 -7 -38 -9 -67 -5 -47 6 -50 6 -69 -26 -37 -61 -32
-65 80 -61 56 2 120 7 143 13 23 5 85 10 137 11 52 0 106 4 120 8 l25 7 -22
12 c-17 9 -28 9 -47 1 -21 -10 -42 -7 -125 20 -104 33 -144 37 -175 20z"/>
<path d="M2020 510 c-19 -42 -25 -75 -27 -145 l-3 -90 16 40 c17 47 47 208 42
233 -2 10 -13 -5 -28 -38z"/>
</g>
</svg>
